<svg xmlns="http://www.w3.org/2000/svg" width="1200" height="675" viewBox="0 0 1200 675" role="img" aria-labelledby="title desc" shape-rendering="crispEdges">
<title id="title">CanvaからPNGまたはPDFを保存するドット絵図解</title><desc id="desc">共有メニューからファイル形式を選んで保存するドット絵図解</desc>
<defs><pattern id="grid" width="20" height="20" patternUnits="userSpaceOnUse"><path d="M20 0H0V20" fill="none" stroke="#2d5a47" stroke-width="2"/></pattern><pattern id="paper" width="8" height="8" patternUnits="userSpaceOnUse"><rect width="8" height="4" fill="#fffdf0"/><rect y="4" width="8" height="4" fill="#f1ebcf"/></pattern></defs>
<rect width="1200" height="675" fill="#071f18"/><rect width="1200" height="675" fill="url(#grid)"/><path d="M0 0H1200V12H0ZM0 663H1200V675H0Z" fill="#ffcf22"/>
<rect x="24" y="24" width="1152" height="627" fill="#103a2b" stroke="#151811" stroke-width="12"/><rect x="42" y="42" width="1116" height="66" fill="#071f18"/><text x="68" y="83" fill="#fffdf0" font-family="monospace" font-size="28" font-weight="900">共有 → ダウンロード</text><rect x="918" y="52" width="210" height="46" fill="#ffcf22" stroke="#fffdf0" stroke-width="6"/><text x="954" y="84" fill="#151811" font-family="monospace" font-size="22" font-weight="900">STEP 03</text>
<rect x="68" y="140" width="560" height="430" fill="url(#paper)" stroke="#151811" stroke-width="10"/><rect x="86" y="158" width="524" height="394" fill="none" stroke="#2d5a47" stroke-width="6"/>
<g transform="translate(116 202)"><path d="M82 64L130 40H154V18H258V40H282L330 64L384 108V154L334 184L290 142V310H122V142L78 184L28 154V108Z" fill="#fffdf0" stroke="#151811" stroke-width="10"/><path d="M154 18V38H172V54H240V38H258V18" fill="#f1ebcf" stroke="#151811" stroke-width="8"/><rect x="140" y="112" width="132" height="86" fill="#103a2b" stroke="#ffcf22" stroke-width="6"/><text x="160" y="148" fill="#fffdf0" font-family="monospace" font-size="24" font-weight="900">HADAOJI</text><text x="174" y="180" fill="#ffcf22" font-family="monospace" font-size="22" font-weight="900">PRINT</text></g>
<path d="M620 328H682V292L748 356L682 420V384H620Z" fill="#ffcf22" stroke="#151811" stroke-width="10"/>
<rect x="730" y="126" width="400" height="474" fill="url(#paper)" stroke="#151811" stroke-width="10"/><rect x="750" y="146" width="360" height="66" fill="#ffcf22"/><path d="M780 164V188M768 180L780 192L792 180" fill="none" stroke="#151811" stroke-width="6"/><text x="812" y="188" fill="#151811" font-family="monospace" font-size="28" font-weight="900">ダウンロード</text>
<text x="770" y="254" fill="#103a2b" font-family="monospace" font-size="20" font-weight="900">ファイルの種類</text><rect x="770" y="270" width="320" height="66" fill="#fffdf0" stroke="#151811" stroke-width="6"/><text x="794" y="313" fill="#103a2b" font-family="monospace" font-size="27" font-weight="900">PNG</text><path d="M1042 292H1070L1056 310Z" fill="#151811"/>
<rect x="770" y="362" width="34" height="34" fill="#22a861" stroke="#151811" stroke-width="5"/><path d="M778 378L787 387L800 368" fill="none" stroke="#fffdf0" stroke-width="5"/><text x="826" y="389" fill="#103a2b" font-family="monospace" font-size="21" font-weight="900">背景を透過</text><text x="770" y="430" fill="#6b6248" font-family="monospace" font-size="16" font-weight="700">※プランにより表示が異なります</text>
<rect x="770" y="458" width="320" height="76" fill="#ffcf22" stroke="#151811" stroke-width="6"/><text x="832" y="506" fill="#151811" font-family="monospace" font-size="26" font-weight="900">保存する！</text><rect x="770" y="550" width="320" height="32" fill="#103a2b"/><text x="795" y="573" fill="#fffdf0" font-family="monospace" font-size="17" font-weight="900">文字中心ならPDFも保存</text>
<rect x="388" y="612" width="424" height="39" fill="#fffdf0"/><text x="434" y="640" fill="#103a2b" font-family="monospace" font-size="21" font-weight="900">PNG または PDF で保存</text>
</svg>
